<?xml version="1.0" standalone="no"?>
<!DOCTYPE svg PUBLIC "-//W3C//DTD SVG 20010904//EN"
 "http://www.w3.org/TR/2001/REC-SVG-20010904/DTD/svg10.dtd">
<svg version="1.0" xmlns="http://www.w3.org/2000/svg"
 width="1781.000000pt" height="830.000000pt" viewBox="0 0 1781.000000 830.000000"
 preserveAspectRatio="xMidYMid meet">

<g transform="translate(0.000000,830.000000) scale(0.100000,-0.100000)"
fill="#000000" stroke="none">
<path d="M3745 8283 c-770 -67 -1465 -332 -2080 -793 -909 -681 -1498 -1713
-1630 -2854 -151 -1306 301 -2581 1236 -3491 236 -230 537 -456 823 -620 446
-254 949 -422 1468 -490 257 -33 516 -36 2388 -33 2017 5 1928 2 2280 64 1450
255 2670 1321 3145 2747 136 408 202 782 212 1212 15 603 -81 1146 -298 1695
-58 146 -197 430 -267 545 l-48 80 -420 -1 c-272 0 -454 -5 -519 -13 -379 -47
-736 -192 -1038 -419 l-87 -66 120 -120 c136 -138 197 -211 285 -346 401 -607
479 -1360 214 -2041 -254 -651 -808 -1147 -1473 -1319 -267 -69 -144 -65
-2256 -65 -1786 0 -1912 1 -2024 18 -852 129 -1536 733 -1777 1567 -221 771
-4 1615 561 2180 315 316 690 511 1155 602 109 22 122 22 1615 26 l1505 4 97
147 c245 370 591 734 963 1011 275 205 594 383 913 510 l92 36 -147 47 c-259
81 -435 121 -696 159 l-152 22 -2060 2 c-1133 0 -2078 -1 -2100 -3z"/>
</g>
</svg>
